<?xml version="1.0" encoding="UTF-8"?>
<!-- Generated by Pixelmator Pro 3.5.5 -->
<svg width="1598" height="2057" viewBox="0 0 1598 2057" xmlns="http://www.w3.org/2000/svg">
    <path id="Shape" fill="none" stroke="#ffffff" stroke-width="4" d="M 1145.2146 2051.929688 C 1132.079468 2051.877441 1125.302612 2051.388428 1119 2050.03833 C 1114.324951 2049.036865 1097.224976 2044.365356 1081 2039.657227 C 1064.775024 2034.949097 1036.425049 2026.555176 1018 2021.004028 C 999.574951 2015.453003 970.775024 2006.862915 954 2001.914917 C 937.224976 1996.967041 912.025024 1989.751831 898 1985.881226 C 883.974976 1982.01062 861.888428 1976.226074 848.918579 1973.026855 C 835.948853 1969.827515 816.771362 1965.36792 806.30188 1963.116577 C 795.83252 1960.865356 778.544128 1957.477783 767.883301 1955.588745 C 757.222473 1953.699707 741.12793 1951.215332 732.117676 1950.067993 C 723.107361 1948.920654 704.882385 1947.078491 691.617676 1945.974365 C 678.352966 1944.870117 635.549988 1941.499512 596.5 1938.484009 C 557.450012 1935.468506 514.474976 1932.101929 501 1931.002686 C 483.93219 1929.610474 473.316406 1928.231934 466.005432 1926.458252 C 460.233459 1925.058105 451.061157 1922.127197 445.62262 1919.94519 C 440.184082 1917.763306 432.21106 1913.882202 427.904785 1911.320679 C 423.598572 1908.759155 417.470825 1904.651611 414.287598 1902.192749 C 411.104431 1899.734009 397.224182 1886.197266 383.442566 1872.111084 C 369.661011 1858.025024 321.841064 1808.819702 277.176086 1762.765991 C 232.511108 1716.712402 161.091095 1643.077393 118.464966 1599.132813 C 75.838806 1555.188232 38.368927 1516.051025 35.198547 1512.161133 C 32.028168 1508.27124 27.242844 1501.404785 24.564529 1496.902222 C 21.8862 1492.399658 18.190277 1485.148193 16.351349 1480.787964 C 14.512421 1476.427734 11.927933 1469.135254 10.608032 1464.58252 C 9.288132 1460.029663 7.598862 1452.073608 6.854111 1446.902344 C 6.109344 1441.731079 5.527176 1432.324951 5.560379 1426 C 5.593597 1419.675049 6.393051 1410 7.336975 1404.5 C 8.280884 1399 10.768463 1389.550049 12.864944 1383.5 C 14.961411 1377.449951 26.876572 1350.113525 39.343079 1322.752197 C 51.80957 1295.390869 72.810547 1249.154785 86.011902 1220.005371 C 99.213257 1190.855957 120.584229 1143.604248 133.50293 1115.001343 C 146.421661 1086.398438 164.916016 1045.334473 174.601532 1023.748047 C 184.287048 1002.161621 199.431 968.300049 208.254761 948.5 C 217.078522 928.699951 229.16925 901.182373 235.123016 887.349731 C 244.431305 865.723267 246.294342 860.468994 248.419556 849.849731 C 249.77887 843.057373 252.690979 826.025024 254.8909 812 C 257.09082 797.974976 262.740112 760.962524 267.444916 729.75 C 272.149719 698.537476 281.624512 634.862427 288.5 588.25 C 295.375488 541.637451 301.92334 498.798584 303.05072 493.052246 C 304.17804 487.30603 306.88739 477.862549 309.071411 472.066895 C 311.255432 466.27124 315.170349 457.787598 317.771179 453.2146 C 320.372009 448.641479 325.226196 441.434937 328.558289 437.199951 C 331.89032 432.964966 340.440308 424.030518 347.558289 417.345459 C 354.676208 410.660522 453.071899 321.912109 566.215393 220.126831 C 679.358826 118.341553 773.858826 33.663086 776.215393 31.952515 C 778.571899 30.241821 783.784607 26.792358 787.799133 24.286987 C 791.81366 21.781616 799.238647 17.939331 804.299194 15.748657 C 809.359619 13.557983 818.675049 10.41748 825 8.769775 C 834.754395 6.22876 838.993408 5.694824 852.927124 5.252197 C 865.688721 4.846924 871.713379 5.114502 879.927124 6.451172 C 885.742188 7.397705 894.555908 9.470337 899.513184 11.057129 C 904.470459 12.643921 912.692261 15.969849 917.784058 18.447998 C 922.875732 20.926147 929.844727 24.838501 933.270874 27.14209 C 936.696899 29.445679 942.949341 34.219238 947.165283 37.75 C 951.381104 41.28064 957.726807 47.618896 961.266602 51.834717 C 964.806519 56.050659 1045.941895 158.949951 1141.567627 280.5 C 1237.193237 402.050049 1317.738525 504.552612 1320.557129 508.283691 C 1323.375732 512.014648 1327.599243 518.418457 1329.942749 522.514526 C 1332.286255 526.610474 1335.708496 533.457764 1337.547607 537.730835 C 1339.386719 542.003906 1342.05896 549.550049 1343.485962 554.5 C 1344.913086 559.449951 1346.751343 567.099976 1347.571167 571.5 C 1348.616821 577.112061 1349.331299 591.973633 1349.965088 621.28894 C 1350.462036 644.272827 1351.351929 671.722778 1351.942749 682.28894 C 1352.533569 692.85498 1353.714355 710.724976 1354.56665 722 C 1355.418945 733.275024 1357.448853 754.650024 1359.077637 769.5 C 1360.706421 784.349976 1363.635132 806.839966 1365.58606 819.477661 C 1367.536865 832.115234 1370.704956 850.340332 1372.626221 859.977661 C 1374.547485 869.614868 1377.947632 884.925049 1380.182129 894 C 1382.416626 903.074951 1386.170654 916.800049 1388.524414 924.5 C 1390.878052 932.199951 1394.563843 943.449951 1396.715088 949.5 C 1398.866211 955.550049 1403.514038 967.25 1407.043579 975.5 C 1410.57312 983.75 1418.719482 1001.074951 1425.146606 1014 C 1431.573853 1026.925049 1441.824585 1046.439697 1447.926025 1057.365967 C 1454.027466 1068.292358 1463.375122 1084.49231 1468.698486 1093.365967 C 1474.021851 1102.239746 1483.377197 1117.375 1489.488159 1127 C 1495.599121 1136.625 1506.610596 1153.5 1513.95813 1164.5 C 1521.305786 1175.5 1532.713867 1192.150024 1539.30957 1201.5 C 1545.905273 1210.849976 1558.096313 1227.703613 1566.400879 1238.952637 C 1574.705444 1250.201416 1583.185913 1262.801514 1585.246582 1266.952637 C 1587.307251 1271.103638 1589.731567 1277.425049 1590.634033 1281 C 1591.583984 1284.762939 1592.275024 1291.500488 1592.275024 1297 C 1592.275024 1302.59082 1591.59021 1309.174805 1590.610718 1313 C 1589.695435 1316.574951 1587.451294 1322.650024 1585.623901 1326.5 C 1583.796387 1330.349976 1576.315186 1343.400024 1568.998779 1355.5 C 1561.682373 1367.599976 1549.611816 1387.400024 1542.175049 1399.5 C 1534.738403 1411.599976 1521.603638 1432.75415 1512.986816 1446.509155 C 1504.369873 1460.26416 1489.644775 1483.487793 1480.26416 1498.117065 C 1470.883667 1512.746338 1454.97522 1537.267334 1444.912109 1552.60791 C 1434.849121 1567.948486 1419.554321 1591.074951 1410.923706 1604 C 1402.293091 1616.925049 1390.812378 1635.150024 1385.411011 1644.5 C 1380.009644 1653.849976 1371.89856 1669.375 1367.386475 1679 C 1362.874268 1688.625 1356.398438 1703.474976 1352.995483 1712 C 1349.592651 1720.525024 1344.576538 1734.025024 1341.848755 1742 C 1339.120972 1749.974976 1334.867065 1763.25 1332.395752 1771.5 C 1329.924438 1779.75 1326.148926 1793.474976 1324.005615 1802 C 1321.862427 1810.525024 1318.749146 1823.617432 1317.087402 1831.094482 C 1315.425537 1838.571411 1312.735596 1852.071411 1311.109619 1861.094482 C 1309.483765 1870.117432 1307.211426 1884.474976 1306.060181 1893 C 1304.908936 1901.525024 1303.061401 1913.106323 1301.95459 1918.736328 C 1300.847778 1924.366333 1298.350342 1933.545776 1296.404907 1939.13501 C 1294.459351 1944.724243 1290.466431 1954.085083 1287.531738 1959.936646 C 1284.597046 1965.78833 1279.477051 1974.608887 1276.154053 1979.537964 C 1272.831055 1984.467041 1266.946533 1992.187622 1263.077393 1996.694824 C 1259.20813 2001.202026 1252.217163 2008.234009 1247.54187 2012.321411 C 1242.866455 2016.408936 1235.09436 2022.452026 1230.27063 2025.750488 C 1225.446777 2029.04895 1216.860718 2034.072021 1211.19043 2036.912842 C 1205.520142 2039.753784 1196.792969 2043.447632 1191.796631 2045.121582 C 1186.800415 2046.79541 1178.261353 2049.027832 1172.820801 2050.08252 C 1165.235107 2051.552979 1158.799438 2051.983643 1145.2146 2051.929688 Z"/>
</svg>
